<?xml version="1.0" encoding="utf-8"?>
<!-- Generator: Adobe Illustrator 22.0.0, SVG Export Plug-In . SVG Version: 6.00 Build 0)  -->
<svg version="1.1" id="Layer_1" xmlns="http://www.w3.org/2000/svg" xmlns:xlink="http://www.w3.org/1999/xlink" x="0px" y="0px"
	 viewBox="0 0 300 300" style="enable-background:new 0 0 300 300;" xml:space="preserve">
<style type="text/css">
	.st0{display:none;}
	.st1{stroke:#FF1B28;stroke-width:10;stroke-miterlimit:10;}
	.st2{display:inline;}
	.st3{fill:#FF1B28;}
</style>
<rect y="0" class="st0" width="300" height="300"/>
<polygon class="st1" points="282.4,149.7 289.6,118.5 269,92.5 261.4,60.1 232.5,46.4 212.6,21.3 179.4,21.2 149.4,7 120.6,21.1 
	88.6,21 67.8,46.9 38,61.5 31,92.7 11,117.7 18.3,150.1 11.1,182.5 31.2,207.4 38.2,238.6 68.1,253.1 89,279 121,278.8 149.8,292.8 
	179.7,278.4 212.9,278.3 232.8,253.1 261.6,239.3 269.1,207 289.7,180.9 "/>
<g class="st0">
	<g id="XMLID_1_" class="st2">
		<g>
			<path class="st3" d="M252,150.9l-27.4,27.4c-19.8,19.8-46.2,30.8-74.3,30.8S95.9,198.1,76,178.2l-28-28l27.4-27.4
				c19.8-19.8,46.2-30.8,74.3-30.8c28.1,0,54.4,10.9,74.3,30.8L252,150.9z M219.7,173.4l22.5-22.5L219,127.7
				C200.5,109.2,175.9,99,149.6,99c-26.2,0-50.9,10.2-69.4,28.8l-22.5,22.5l23.2,23.2c18.5,18.5,43.2,28.7,69.4,28.7
				C176.5,202.1,201.2,191.9,219.7,173.4z"/>
			<path class="st3" d="M149.9,105.6c24.7,0,44.8,20.1,44.8,44.8c0,24.7-20.1,44.8-44.8,44.8s-44.8-20.1-44.8-44.8
				C105.1,125.7,125.2,105.6,149.9,105.6z M153.3,129.8c0-1.9-1.5-3.4-3.5-3.4c-13.3,0-24.1,10.8-24.1,24.1c0,1.9,1.5,3.4,3.4,3.4
				c1.9,0,3.4-1.5,3.4-3.4c0-9.5,7.7-17.2,17.2-17.2C151.8,133.2,153.3,131.7,153.3,129.8z"/>
		</g>
		<g>
		</g>
	</g>
</g>
<g class="st0">
	<g class="st2">
		<path class="st3" d="M203.5,132.1h4.4h2.1h8.6c-4.5-34.3-33.9-60.8-69.4-60.8c-36.4,0-66.4,27.9-69.7,63.4h8.1h2.6h6.6
			c1.6,0,3.1,0.5,4.4,1.2c6.6-20.2,25.6-34.9,47.9-34.9c22,0,40.7,14.2,47.6,33.8C198.5,133.1,200.9,132.1,203.5,132.1z M149.3,87.7
			c-23.6,0-44.2,12.8-55.2,31.9c8.7-22,30.1-37.6,55.2-37.6c25,0,46.5,15.6,55.2,37.6C193.4,100.5,172.9,87.7,149.3,87.7z"/>
		<path class="st3" d="M106.2,177.6v2.6c0,4.7-3.6,8.6-8.2,9.2c11.6,15.7,30.2,25.8,51.2,25.8c22.2,0,41.7-11.3,53.1-28.5
			c-4.6-0.6-8.2-4.5-8.2-9.2v-3.2c-8.4,16.3-25.3,27.5-44.9,27.5C131,201.9,115.1,192.2,106.2,177.6z"/>
		<path class="st3" d="M131.1,138.7c5.4,0,9.8,4.4,9.8,9.8c0,5.4-4.4,9.8-9.8,9.8c-5.4,0-9.8-4.4-9.8-9.8
			C121.3,143.1,125.7,138.7,131.1,138.7z"/>
		<path class="st3" d="M168.4,138.7c5.4,0,9.8,4.4,9.8,9.8c0,5.4-4.4,9.8-9.8,9.8c-5.4,0-9.8-4.4-9.8-9.8
			C158.6,143.1,163,138.7,168.4,138.7z"/>
		<path class="st3" d="M217.8,185.6c0-0.4,0.1-0.9,0.1-1.3h4.2c3.7,0,6.7-3,6.7-6.7v-36.2c0-3.7-3-6.7-6.7-6.7h-3.2h-8.1h-2.6h-4.7
			c-2.4,0-4.5,1.3-5.7,3.2c-0.6,1-1,2.2-1,3.4v26.8v9.4c0,3.7,3,6.7,6.7,6.7h0.5h8.6c0,0.4,0,0.9-0.1,1.3c0,0.4,0,0.9-0.1,1.3
			c-0.7,12.8-1.7,27,4.8,37.8c-19.7-5.8-40-5.1-60.7-4.9c-14,0.1-27.8-0.8-41.3-5c-10.5-3.3-23.6-13.4-25.5-25.1
			c-0.1-0.4-0.1-0.9-0.2-1.3c0-0.4-0.1-0.9-0.1-1.3h6.7h0.6c3.7,0,6.7-3,6.7-6.7v-7.6v-28.6c0-2.3-1.2-4.3-3-5.5
			c-1.1-0.7-2.3-1.1-3.7-1.1h-6.8h-3h-7.7h-1.2c-3.7,0-6.7,3-6.7,6.7v36.2c0,3.7,3,6.7,6.7,6.7h5.8c0,0.4,0,0.9,0,1.3
			c0,0.4,0.1,0.9,0.1,1.3c1.8,17.1,22.5,28.7,37.7,32.6c33.8,8.7,69.3-3.4,102.4,10.6c3.1,1.3,5.8-3.3,2.7-4.6
			c-0.2-0.1-0.4-0.1-0.5-0.2c-0.1-0.4-0.3-0.8-0.7-1.1c-10.4-9.8-9-25.9-8.1-39.9C217.8,186.5,217.8,186,217.8,185.6z"/>
	</g>
</g>
<g>
	<g>
		<path class="st3" d="M223.9,140.4L123.3,71.9c-3.4-2.3-7.8-2.5-11.4-0.6c-3.6,1.9-5.9,5.7-5.9,9.8v137c0,4.1,2.3,7.9,5.9,9.8
			c3.6,1.9,8,1.7,11.4-0.6l100.6-68.5c3-2.1,4.8-5.5,4.8-9.1C228.7,145.9,226.9,142.5,223.9,140.4z"/>
	</g>
</g>
<g class="st0">
	<g id="Layer_2_5_" class="st2">
		<path class="st3" d="M190.8,172c-18.7-6.7-24.7-12.4-24.7-24.6c0-1.3,0.2-2.4,0.5-3.2c1.5-3.8,5.6-4.2,7.7-15.1
			c1-5.4,5.9-0.3,7-11.9c0.1-0.8,0.1-1.6,0-2.4c-0.1-1.1-0.4-2-0.8-2.7c-1.1-2.2-1.4-4.7-1-7.1c0.4-2.5,0.8-5.5,1.1-8.2
			c0.7-7.2-4.2-25.7-30.1-25.7c-0.1,0-0.2,0-0.3,0c-0.1,0-0.2,0-0.3,0c-26,0-30.8,18.5-30.1,25.7c0.3,2.7,0.7,5.7,1.1,8.2
			c0.4,2.4,0.1,4.9-1,7.1c-0.3,0.7-0.6,1.6-0.8,2.7c-0.1,0.8-0.1,1.6,0,2.4c1.1,11.6,6,6.5,7,11.9c2,10.9,6.2,11.4,7.7,15.1
			c0.3,0.8,0.5,1.9,0.5,3.2c0,12.2-6,17.9-24.7,24.6c-18.8,6.8-27.2,13.7-27.2,18.4v19.1c0,6.5,5.3,11.7,11.7,11.7h56.1h0.1h56.1
			c6.5,0,11.7-5.3,11.7-11.7v-19.1C218,185.6,209.6,178.7,190.8,172z"/>
	</g>
</g>
</svg>
