<?xml version="1.0" encoding="utf-8"?>
<!-- Generator: Adobe Illustrator 22.0.0, SVG Export Plug-In . SVG Version: 6.00 Build 0)  -->
<svg version="1.1" id="Layer_1" xmlns="http://www.w3.org/2000/svg" xmlns:xlink="http://www.w3.org/1999/xlink" x="0px" y="0px"
	 viewBox="0 0 512 512" style="enable-background:new 0 0 512 512;" xml:space="preserve">
<style type="text/css">
	.st0{fill:#D32222;}
	.st1{fill:#020202;}
	.st2{fill:#C90505;}
</style>
<g>
	<g id="XMLID_1_">
		<g>
			<path class="st0" d="M437,75c99.8,99.8,99.8,262.2,0,362c-48.3,48.4-112.6,75-181,75V288.9l82.3,82.3c4.5,4.5,10.5,6.8,16.5,6.8
				c6,0,11.9-2.3,16.5-6.8c9.1-9.1,9.1-23.8,0-32.9L288.9,256l82.3-82.3c9.1-9.1,9.1-23.8,0-32.9c-9.1-9.1-23.8-9.1-32.9,0
				L256,223.1V0C324.4,0,388.7,26.6,437,75z"/>
			<path class="st1" d="M371.2,338.3c9.1,9.1,9.1,23.8,0,32.9c-4.5,4.5-10.5,6.8-16.5,6.8c-6,0-11.9-2.3-16.5-6.8L256,288.9
				l-82.3,82.3c-4.6,4.5-10.5,6.8-16.5,6.8c-5.9,0-11.9-2.3-16.4-6.8c-9.1-9.1-9.1-23.8,0-32.9l82.3-82.3l-82.3-82.3
				c-9.1-9.1-9.1-23.8,0-32.9c9.1-9.1,23.8-9.1,32.9,0l82.3,82.3l82.3-82.3c9.1-9.1,23.8-9.1,32.9,0c9.1,9.1,9.1,23.8,0,32.9
				L288.9,256L371.2,338.3z"/>
			<path class="st2" d="M256,288.9V512c-68.4,0-132.7-26.6-181-75c-99.8-99.8-99.8-262.2,0-362C123.3,26.6,187.6,0,256,0v223.1
				l-82.3-82.3c-9.1-9.1-23.8-9.1-32.9,0c-9.1,9.1-9.1,23.8,0,32.9l82.3,82.3l-82.3,82.3c-9.1,9.1-9.1,23.8,0,32.9
				c4.5,4.5,10.5,6.8,16.4,6.8c6,0,11.9-2.3,16.5-6.8L256,288.9z"/>
		</g>
		<g>
		</g>
	</g>
</g>
</svg>
