<?xml version="1.0" encoding="utf-8"?>
<!-- Generator: Adobe Illustrator 22.0.0, SVG Export Plug-In . SVG Version: 6.00 Build 0)  -->
<svg version="1.1" id="Capa_1" xmlns="http://www.w3.org/2000/svg" xmlns:xlink="http://www.w3.org/1999/xlink" x="0px" y="0px"
	 viewBox="0 0 60 60" style="enable-background:new 0 0 60 60;" xml:space="preserve">
<style type="text/css">
	.st0{fill:#C90505;}
	.st1{fill:#600A0A;}
	.st2{fill:#939393;}
</style>
<g>
	<g id="XMLID_1_">
		<g>
			<path class="st0" d="M59.8,15.9c0.2,0.2,0.3,0.6,0.2,0.9l-5.9,41.3c-0.1,0.8-0.8,1.4-1.6,1.4H7.6c-0.8,0-1.5-0.6-1.6-1.3L0,16.3
				l0.3-0.4c0.2-0.2,0.5-0.4,0.8-0.4h1.4l-0.4-3.3c0-0.4,0.1-0.9,0.4-1.2c0.3-0.3,0.7-0.5,1.1-0.5H6V7c0-0.8,0.7-1.5,1.5-1.5H10V2
				c0-0.8,0.7-1.5,1.5-1.5h37C49.4,0.5,50,1.2,50,2v3.5h2.5C53.4,5.5,54,6.2,54,7v3.5h2.4c0.4,0,0.8,0.2,1.1,0.5
				c0.3,0.3,0.4,0.7,0.4,1.2l-0.4,3.3h1.8L59.8,15.9z M52.2,57.5l5.7-40h-0.6H29.5H2.8H2.2l5.7,40h21.7H52.2z M55.5,15.5l0.4-3H54H6
				H4.2l0.4,3H55.5z M52,10.5v-3h-2H10H8v3H52z M48,5.5v-3H12v3H48z"/>
			<path class="st0" d="M57.9,17.5l-5.7,40H29.5v-3c11.3,0,20.5-7.6,20.5-17s-9.2-17-20.5-17v-3h27.8H57.9z"/>
			<polygon class="st1" points="55.9,12.5 55.5,15.5 4.5,15.5 4.2,12.5 6,12.5 54,12.5 			"/>
			<polygon class="st1" points="52,7.5 52,10.5 8,10.5 8,7.5 10,7.5 50,7.5 			"/>
			<rect x="12" y="2.5" class="st1" width="36" height="3"/>
			<path d="M29.5,20.5c11.3,0,20.5,7.6,20.5,17s-9.2,17-20.5,17C18.2,54.5,9,46.9,9,37.5S18.2,20.5,29.5,20.5z M48,37.5
				c0-8.3-8.3-15-18.5-15c-0.3,0-0.5,0-0.8,0c-9.9,0.3-17.7,6.9-17.7,15c0,8.3,8.3,15,18.5,15c0.3,0,0.6,0,0.9,0
				C40.2,52.1,48,45.5,48,37.5z"/>
			<path d="M29.5,22.5c10.2,0,18.5,6.7,18.5,15c0,8-7.8,14.6-17.6,15l0-1.7c3.7-0.2,7.2-1.3,10.2-3.5c0.5-0.3,0.5-0.9,0.2-1.4
				c-0.3-0.5-1-0.5-1.4-0.2c-2.5,1.8-5.4,2.9-8.5,3.1L30.8,47c2.7-0.2,5.2-1.1,7.4-2.7c0.5-0.3,0.5-0.9,0.2-1.4
				c-0.3-0.5-1-0.5-1.4-0.2c-1.9,1.4-4.1,2.2-6.4,2.3l-0.1-1.7c1.9-0.1,3.7-0.8,5.3-1.9c0.4-0.3,0.5-1,0.2-1.4
				c-0.3-0.4-1-0.5-1.4-0.2c-1.2,0.8-2.5,1.4-3.9,1.5l-0.2-2c1.1-0.2,1.9-0.8,1.9-1.7c0-0.9-1-1.7-2.3-1.7c-0.2,0-0.3,0-0.5,0
				L29.4,34c0.1,0,0.1,0,0.2,0c0.5,0,1-0.5,1-1s-0.5-1-1-1c-0.3,0-0.6,0-0.8,0l-0.1-1.7c0.3,0,0.6,0,0.9,0c0.5,0,1-0.5,1-1
				c0-0.6-0.5-1-1-1c-0.4,0-0.8,0-1.2,0l-0.1-1.7c0.4,0,0.9,0,1.3,0c0.5,0,1-0.5,1-1c0-0.6-0.5-1-1-1c-0.2,0-0.5,0-0.8,0l0-1.9
				C29,22.5,29.3,22.5,29.5,22.5z"/>
			<path class="st2" d="M40.8,45.9c0.3,0.5,0.2,1.1-0.2,1.4c-3,2.2-6.5,3.3-10.2,3.5c-0.2,0-0.5,0-0.7,0c-0.6,0-1-0.4-1-1
				c0-0.5,0.4-1,1-1c0.4,0,0.8,0,1.3,0c3.1-0.2,6-1.3,8.5-3.1C39.8,45.3,40.5,45.4,40.8,45.9z"/>
			<path class="st2" d="M38.4,42.9c0.3,0.4,0.2,1.1-0.2,1.4c-2.1,1.6-4.7,2.5-7.4,2.7c-0.4,0-0.8,0-1.2,0c-0.6,0-1-0.4-1-1
				c0-0.5,0.4-1,1-1c0.3,0,0.6,0,0.9,0c2.4-0.2,4.6-0.9,6.4-2.3C37.4,42.3,38,42.4,38.4,42.9z"/>
			<path class="st2" d="M36,39.9c0.3,0.5,0.2,1.1-0.2,1.4c-1.5,1.1-3.3,1.8-5.3,1.9c-0.3,0-0.5,0-0.8,0c-0.6,0-1-0.4-1-1
				c0-0.6,0.4-1,1-1c0.3,0,0.7,0,1-0.1c1.4-0.2,2.8-0.7,3.9-1.5C35,39.3,35.6,39.5,36,39.9z"/>
			<path class="st2" d="M29.9,35.8c1.3,0,2.3,0.8,2.3,1.7c0,0.8-0.8,1.5-1.9,1.7c-0.1,0-0.3,0-0.5,0c-1.3,0-2.3-0.8-2.3-1.7
				c0-0.8,0.8-1.5,1.9-1.7C29.6,35.8,29.8,35.8,29.9,35.8z"/>
			<path d="M30.8,47l0.1,1.7c-0.4,0-0.8,0-1.3,0c-0.6,0-1,0.5-1,1c0,0.6,0.4,1,1,1c0.2,0,0.5,0,0.7,0l0,1.7c-0.3,0-0.6,0-0.9,0
				c-10.2,0-18.5-6.7-18.5-15c0-8.1,7.9-14.6,17.7-15l0,1.9c-3.7,0.2-7.2,1.3-10.2,3.5c-0.5,0.3-0.5,0.9-0.2,1.4
				c0.2,0.3,0.5,0.4,0.8,0.4c0.2,0,0.4-0.1,0.6-0.2c2.5-1.8,5.4-2.9,8.5-3.1l0.1,1.7c-2.7,0.2-5.2,1.1-7.4,2.7
				c-0.4,0.3-0.5,1-0.2,1.4c0.2,0.3,0.5,0.4,0.8,0.4c0.2,0,0.4-0.1,0.6-0.2c1.9-1.4,4.1-2.2,6.4-2.3l0.1,1.7
				c-1.9,0.2-3.7,0.8-5.3,1.9c-0.4,0.3-0.5,1-0.2,1.4c0.2,0.3,0.5,0.4,0.8,0.4c0.2,0,0.4-0.1,0.6-0.2c1.4-1,3-1.5,4.8-1.6l0.1,1.9
				c-1.1,0.2-1.9,0.8-1.9,1.7c0,0.9,1,1.7,2.3,1.7c0.2,0,0.3,0,0.5,0l0.2,2c-0.3,0-0.7,0.1-1,0.1c-0.6,0-1,0.4-1,1c0,0.6,0.4,1,1,1
				c0.3,0,0.6,0,0.8,0l0.1,1.7c-0.3,0-0.6,0-0.9,0c-0.6,0-1,0.5-1,1c0,0.6,0.4,1,1,1C30,47,30.4,47,30.8,47z"/>
			<path class="st2" d="M29.5,24.5c0.5,0,1,0.4,1,1c0,0.5-0.5,1-1,1c-0.4,0-0.9,0-1.3,0c-3.1,0.2-6,1.3-8.5,3.1
				c-0.2,0.1-0.4,0.2-0.6,0.2c-0.3,0-0.6-0.1-0.8-0.4c-0.3-0.4-0.2-1.1,0.2-1.4c3-2.2,6.5-3.3,10.2-3.5C29,24.5,29.3,24.5,29.5,24.5
				z"/>
			<path class="st2" d="M29.5,28.2c0.5,0,1,0.4,1,1c0,0.5-0.5,1-1,1c-0.3,0-0.6,0-0.9,0c-2.3,0.1-4.6,0.9-6.4,2.3
				c-0.2,0.1-0.4,0.2-0.6,0.2c-0.3,0-0.6-0.1-0.8-0.4c-0.3-0.4-0.2-1.1,0.2-1.4c2.2-1.6,4.7-2.5,7.4-2.7
				C28.8,28.2,29.1,28.2,29.5,28.2z"/>
			<path class="st2" d="M29.5,32c0.5,0,1,0.5,1,1s-0.5,1-1,1c-0.1,0-0.1,0-0.2,0c-1.8,0-3.4,0.6-4.8,1.6c-0.2,0.1-0.4,0.2-0.6,0.2
				c-0.3,0-0.6-0.1-0.8-0.4c-0.3-0.4-0.2-1.1,0.2-1.4c1.5-1.1,3.4-1.8,5.3-1.9C29,32,29.3,32,29.5,32z"/>
			<path class="st0" d="M29.5,54.5v3H7.9l-5.7-40h0.6h26.8v3C18.2,20.5,9,28.1,9,37.5S18.2,54.5,29.5,54.5z"/>
		</g>
		<g>
		</g>
	</g>
</g>
</svg>
